<?xml version="1.0" standalone="no"?>
<!DOCTYPE svg PUBLIC "-//W3C//DTD SVG 20010904//EN"
 "http://www.w3.org/TR/2001/REC-SVG-20010904/DTD/svg10.dtd">
<svg version="1.0" xmlns="http://www.w3.org/2000/svg"
 width="293.000000pt" height="172.000000pt" viewBox="0 0 293.000000 172.000000"
 preserveAspectRatio="xMidYMid meet">

<g transform="translate(0.000000,172.000000) scale(0.100000,-0.100000)"
fill="#000000" stroke="none">
<path d="M1944 1649 l-61 -61 -64 30 c-310 148 -680 87 -922 -152 -110 -108
-175 -220 -219 -374 -32 -111 -31 -305 1 -417 26 -93 67 -183 111 -244 l32
-44 83 83 83 82 -34 67 c-163 323 -3 708 341 817 105 33 230 35 328 4 37 -11
67 -24 67 -28 0 -3 -21 -28 -47 -54 l-47 -48 207 0 207 0 0 200 c0 110 -1 200
-3 200 -1 0 -30 -28 -63 -61z"/>
<path d="M2085 1268 c-33 -28 -73 -61 -89 -75 l-28 -23 26 -63 c35 -83 45
-137 46 -227 0 -303 -230 -553 -532 -577 -67 -5 -185 8 -211 24 -4 2 13 29 38
60 25 31 44 57 43 59 -9 8 -398 -41 -397 -51 0 -5 10 -97 22 -203 l22 -193 54
70 c53 68 55 69 81 56 110 -57 354 -75 501 -36 147 38 256 99 367 205 111 106
181 223 224 372 28 102 31 304 5 402 -21 77 -71 199 -95 229 l-17 22 -60 -51z"/>
<path d="M1420 1207 l0 -52 -51 -18 -51 -19 -32 31 c-18 17 -36 31 -42 31 -6
0 -25 -16 -44 -35 l-34 -35 37 -38 c27 -28 34 -41 27 -52 -6 -8 -15 -32 -20
-52 -11 -37 -12 -38 -60 -38 l-50 0 0 -50 0 -50 48 0 48 0 22 -52 22 -52 -35
-35 -35 -35 37 -38 37 -38 36 35 36 35 52 -22 52 -22 0 -54 0 -53 53 3 52 3 3
51 c3 50 3 50 54 72 l51 21 36 -34 35 -35 38 37 38 37 -35 36 -35 36 19 49 19
50 51 3 51 3 0 50 0 49 -50 0 c-39 0 -52 4 -56 18 -3 9 -13 34 -22 55 l-15 38
33 35 34 34 -37 37 -37 37 -39 -38 c-23 -23 -41 -34 -45 -27 -4 6 -25 16 -46
22 l-40 12 0 54 0 53 -55 0 -55 0 0 -53z m132 -245 c76 -71 26 -192 -79 -192
-38 0 -50 5 -79 34 -105 105 51 261 158 158z"/>
</g>
</svg>
